#!OML:ASF H:\Pregnant\Project 1\Capture day 1\Session 1\femalepreg.ASF
:FULLY-SPECIFIED
:DEGREES
801
root -5.51716 14.8387 41.786 -162.962 -5.54184 179.302
lowerback -17.1291 0.979195 -15.2043
upperback -3.33269 3.25441 -6.2737
thorax 5.3917 0.884902 2.37823
lowerneck -11.1413 4.94226 3.35768
upperneck 40.7531 -3.59674 10.1854
head 17.0116 -1.54363 2.80485
rclavicle -2.44505e-014 1.33583e-013
rhumerus -41.1922 3.89341 -87.3196
rradius 33.3601
rwrist 2.04841
rhand -13.4593 -11.2037
rfingers 7.12502
rthumb 12.6505 -40.8006
lclavicle -2.44505e-014 1.33583e-013
lhumerus -36.7176 -12.0864 70.9905
lradius 39.2823
lwrist 41.044
lhand -28.8565 -6.55945
lfingers 7.12502
lthumb -2.21314 23.4088
rfemur -65.4348 8.91782 21.2461
rtibia 90.9751
rfoot -7.65247 -14.4163
rtoes -11.3541
lfemur -34.2098 -14.8347 -24.1202
ltibia 32.189
lfoot -12.9646 -0.370791
ltoes 2.51651
802
root -5.5064 14.845 41.7863 -162.999 -5.45717 179.149
lowerback -17.1683 1.11949 -15.2451
upperback -3.36241 3.42594 -6.51308
thorax 5.36427 0.953747 2.17304
lowerneck -11.1935 4.97476 3.39242
upperneck 40.7509 -3.57719 10.2702
head 17.0275 -1.51473 2.84272
rclavicle 1.05356e-014 -6.36111e-015
rhumerus -41.2151 4.14788 -87.603
rradius 33.3326
rwrist 2.30919
rhand -13.3352 -11.1038
rfingers 7.12502
rthumb 12.7701 -40.6933
lclavicle 1.05356e-014 -6.36111e-015
lhumerus -36.7186 -11.5108 70.2606
lradius 39.1127
lwrist 41.2571
lhand -29.0541 -6.52687
lfingers 7.12502
lthumb -2.40391 23.4393
rfemur -65.155 9.01178 21.489
rtibia 93.112
rfoot -7.459 -14.3028
rtoes -10.9646
lfemur -33.9348 -14.8515 -24.2495
ltibia 31.8038
lfoot -12.8183 -0.328991
ltoes 2.41267
803
root -5.49514 14.8521 41.787 -163.016 -5.37703 179
lowerback -17.1948 1.25037 -15.2923
upperback -3.40114 3.58092 -6.74315
thorax 5.32225 1.01546 1.97754
lowerneck -11.2517 5.01217 3.41838
upperneck 40.7571 -3.54711 10.3484
head 17.0483 -1.48355 2.8815
rclavicle -6.83819e-014 1.33583e-013
rhumerus -41.1869 4.34372 -87.8326
rradius 33.2552
rwrist 2.59554
rhand -13.2014 -11.0018
rfingers 7.12502
rthumb 12.8991 -40.5832
lclavicle -6.83819e-014 1.33583e-013
lhumerus -36.7204 -10.8687 69.5193
lradius 38.9131
lwrist 41.4864
lhand -29.2929 -6.48133
lfingers 7.12502
lthumb -2.63462 23.4821
rfemur -64.894 9.10951 21.729
rtibia 95.1853
rfoot -7.25403 -14.1325
rtoes -10.546
lfemur -33.6795 -14.8626 -24.3699
ltibia 31.4107
lfoot -12.6678 -0.296563
ltoes 2.30199
804
root -5.48325 14.8591 41.788 -163.016 -5.30258 178.855
lowerback -17.2121 1.37792 -15.3414
upperback -3.44965 3.7269 -6.9691
thorax 5.26597 1.07354 1.78531
lowerneck -11.299 5.05085 3.44946
upperneck 40.7652 -3.51581 10.4208
head 17.0671 -1.45264 2.9168
rclavicle 1.19271e-015 0
rhumerus -41.1153 4.45429 -88.0062
rradius 33.1292
rwrist 2.90467
rhand -13.0528 -10.8994
rfingers 7.12502
rthumb 13.0423 -40.4717
lclavicle 1.19271e-015 0
lhumerus -36.7229 -10.1858 68.7688
lradius 38.6852
lwrist 41.7353
lhand -29.5735 -6.42357
lfingers 7.12502
lthumb -2.90556 23.5364
rfemur -64.6544 9.2079 21.9686
rtibia 97.1947
rfoot -7.01765 -13.9126
rtoes -10.0371
lfemur -33.4491 -14.8606 -24.482
ltibia 31.0227
lfoot -12.515 -0.27964
ltoes 2.15768
805
root -5.47044 14.8659 41.79 -162.983 -5.23835 178.711
lowerback -17.2384 1.49033 -15.4098
upperback -3.50353 3.85636 -7.17861
thorax 5.20897 1.12349 1.61798
lowerneck -11.342 5.09039 3.47301
upperneck 40.7745 -3.47393 10.4794
head 17.0837 -1.41991 2.94902
rclavicle 1.96797e-014 6.36111e-014
rhumerus -40.994 4.52408 -88.1255
rradius 32.9594
rwrist 3.23861
rhand -12.9473 -10.7892
rfingers 7.12502
rthumb 13.144 -40.3549
lclavicle 1.96797e-014 6.36111e-014
lhumerus -36.7176 -9.43838 68.0209
lradius 38.425
lwrist 41.999
lhand -29.8571 -6.36424
lfingers 7.12502
lthumb -3.17942 23.5918
rfemur -64.4585 9.29941 22.2046
rtibia 99.1347
rfoot -6.76931 -13.6631
rtoes -9.57093
lfemur -33.2669 -14.855 -24.5799
ltibia 30.6432
lfoot -12.3575 -0.277927
ltoes 2.02215
806
root -5.45715 14.8724 41.7925 -162.929 -5.17823 178.571
lowerback -17.2729 1.59372 -15.4869
upperback -3.55943 3.97656 -7.3751
thorax 5.15437 1.16893 1.46759
lowerneck -11.3778 5.12905 3.4958
upperneck 40.783 -3.42532 10.5227
head 17.0966 -1.38623 2.97544
rclavicle -7.93151e-014 7.63333e-014
rhumerus -40.8391 4.54854 -88.1937
rradius 32.7745
rwrist 3.58641
rhand -12.8844 -10.6413
rfingers 7.12502
rthumb 13.2047 -40.2032
lclavicle -7.93151e-014 7.63333e-014
lhumerus -36.7064 -8.64062 67.2776
lradius 38.1376
lwrist 42.2813
lhand -30.11 -6.31126
lfingers 7.12502
lthumb -3.42373 23.641
rfemur -64.2892 9.38916 22.4386
rtibia 100.999
rfoot -6.52128 -13.4008
rtoes -9.26688
lfemur -33.1168 -14.8367 -24.6688
ltibia 30.2712
lfoot -12.1992 -0.292046
ltoes 1.87523
807
root -5.44368 14.8796 41.795 -162.868 -5.11345 178.445
lowerback -17.317 1.69118 -15.5621
upperback -3.60834 4.09337 -7.55594
thorax 5.11287 1.21269 1.33273
lowerneck -11.4234 5.16871 3.5122
upperneck 40.7976 -3.36828 10.5527
head 17.1139 -1.35078 2.99898
rclavicle 7.35503e-015 5.08889e-014
rhumerus -40.6785 4.57092 -88.2307
rradius 32.6471
rwrist 3.88887
rhand -12.8535 -10.4978
rfingers 7.12502
rthumb 13.2344 -40.0577
lclavicle 7.35503e-015 5.08889e-014
lhumerus -36.6798 -7.77978 66.5348
lradius 37.8156
lwrist 42.5744
lhand -30.3157 -6.27269
lfingers 7.12502
lthumb -3.62233 23.6763
rfemur -64.1203 9.49021 22.6759
rtibia 102.767
rfoot -6.26496 -13.1269
rtoes -9.03316
lfemur -32.9732 -14.8107 -24.7413
ltibia 29.8944
lfoot -12.0397 -0.305602
ltoes 1.72376
808
root -5.43032 14.888 41.797 -162.812 -5.0391 178.331
lowerback -17.3551 1.79797 -15.6178
upperback -3.65599 4.21863 -7.73831
thorax 5.07079 1.26106 1.18724
lowerneck -11.4698 5.20573 3.54482
upperneck 40.8189 -3.32003 10.5727
head 17.136 -1.31811 3.01382
rclavicle -4.29375e-014 6.67916e-014
rhumerus -40.5458 4.57676 -88.2599
rradius 32.6112
rwrist 4.11655
rhand -12.8496 -10.3937
rfingers 7.12502
rthumb 13.2382 -39.9533
lclavicle -4.29375e-014 6.67916e-014
lhumerus -36.6426 -6.89998 65.784
lradius 37.4614
lwrist 42.8751
lhand -30.5033 -6.25085
lfingers 7.12502
lthumb -3.80349 23.695
rfemur -63.9341 9.60667 22.9142
rtibia 104.428
rfoot -6.00428 -12.845
rtoes -8.89477
lfemur -32.8131 -14.7793 -24.8008
ltibia 29.5005
lfoot -11.8755 -0.311238
ltoes 1.56536
809
root -5.41704 14.8983 41.7988 -162.756 -4.95893 178.235
lowerback -17.3876 1.90494 -15.6534
upperback -3.70172 4.34096 -7.91483
thorax 5.0302 1.30885 1.03671
lowerneck -11.5241 5.24434 3.58688
upperneck 40.8485 -3.26999 10.5794
head 17.1644 -1.28476 3.02172
rclavicle -3.95581e-014 9.85972e-014
rhumerus -40.43 4.59722 -88.2881
rradius 32.6615
rwrist 4.24938
rhand -12.8717 -10.3328
rfingers 7.12502
rthumb 13.2169 -39.8938
lclavicle -3.95581e-014 9.85972e-014
lhumerus -36.6068 -5.99309 65.0303
lradius 37.0894
lwrist 43.193
lhand -30.7121 -6.22304
lfingers 7.12502
lthumb -4.00508 23.7191
rfemur -63.7304 9.74334 23.1529
rtibia 105.967
rfoot -5.74522 -12.5715
rtoes -8.85774
lfemur -32.6375 -14.7442 -24.8417
ltibia 29.0785
lfoot -11.7044 -0.311002
ltoes 1.40936
810
root -5.40413 14.9103 41.7997 -162.712 -4.86516 178.16
lowerback -17.4149 2.01063 -15.6692
upperback -3.74207 4.46067 -8.0756
thorax 4.99456 1.35674 0.892318
lowerneck -11.5859 5.28702 3.62535
upperneck 40.8865 -3.21074 10.5753
head 17.1983 -1.2493 3.02747
rclavicle 3.16068e-014 -1.17681e-013
rhumerus -40.3369 4.65418 -88.3111
rradius 32.8118
rwrist 4.27576
rhand -12.9063 -10.358
rfingers 7.12502
rthumb 13.1835 -39.9212
lclavicle 3.16068e-014 -1.17681e-013
lhumerus -36.5794 -5.0451 64.2847
lradius 36.6969
lwrist 43.5133
lhand -30.9922 -6.18894
lfingers 7.12502
lthumb -4.27564 23.7479
rfemur -63.4979 9.90455 23.3913
rtibia 107.378
rfoot -5.49878 -12.3067
rtoes -8.81071
lfemur -32.4338 -14.71 -24.8611
ltibia 28.6308
lfoot -11.5256 -0.289608
ltoes 1.2443
811
root -5.39131 14.9237 41.8004 -162.662 -4.7678 178.1
lowerback -17.4432 2.10439 -15.677
upperback -3.78013 4.56614 -8.21501
thorax 4.96359 1.39898 0.764296
lowerneck -11.6578 5.33477 3.65048
upperneck 40.933 -3.1355 10.558
head 17.2375 -1.21035 3.03302
rclavicle 1.63003e-014 6.67916e-014
rhumerus -40.2276 4.75107 -88.3193
rradius 32.9942
rwrist 4.20724
rhand -12.9688 -10.4195
rfingers 7.12502
rthumb 13.1233 -39.9866
lclavicle 1.63003e-014 6.67916e-014
lhumerus -36.5656 -4.05122 63.5564
lradius 36.2862
lwrist 43.8335
lhand -31.3425 -6.1392
lfingers 7.12502
lthumb -4.61386 23.7906
rfemur -63.2652 10.0766 23.6214
rtibia 108.664
rfoot -5.26401 -12.0583
rtoes -8.80237
lfemur -32.2281 -14.6774 -24.8612
ltibia 28.1662
lfoot -11.3391 -0.25718
ltoes 1.05598
812
root -5.37828 14.9372 41.8013 -162.6 -4.67549 178.053
lowerback -17.4598 2.19739 -15.6615
upperback -3.83001 4.66128 -8.35569
thorax 4.91711 1.43766 0.620209
lowerneck -11.7174 5.38518 3.68956
upperneck 40.9815 -3.0637 10.5402
head 17.2755 -1.1723 3.03492
rclavicle 2.5842e-014 -1.59028e-013
rhumerus -40.1168 4.81917 -88.3219
rradius 33.193
rwrist 4.08168
rhand -13.0553 -10.5022
rfingers 7.12502
rthumb 13.0399 -40.0746
lclavicle 2.5842e-014 -1.59028e-013
lhumerus -36.5742 -3.07485 62.8312
lradius 35.8694
lwrist 44.1609
lhand -31.7218 -6.08001
lfingers 7.12502
lthumb -4.98011 23.8415
rfemur -63.0531 10.244 23.8386
rtibia 109.837
rfoot -5.03934 -11.8198
rtoes -8.78675
lfemur -32.041 -14.6513 -24.8405
ltibia 27.7009
lfoot -11.1449 -0.220165
ltoes 0.8531
813
root -5.36568 14.9505 41.8013 -162.554 -4.56972 178.025
lowerback -17.4726 2.29383 -15.6258
upperback -3.87436 4.76043 -8.48403
thorax 4.87605 1.47957 0.479705
lowerneck -11.7704 5.43522 3.72438
upperneck 41.0284 -2.98968 10.5193
head 17.3105 -1.13475 3.03628
rclavicle -7.95139e-016 -6.36111e-015
rhumerus -40.0016 4.88736 -88.3079
rradius 33.4225
rwrist 3.89358
rhand -13.1607 -10.6306
rfingers 7.12502
rthumb 12.9382 -40.2095
lclavicle -7.95139e-016 -6.36111e-015
lhumerus -36.5977 -2.09763 62.126
lradius 35.4447
lwrist 44.4841
lhand -32.0987 -5.98924
lfingers 7.12502
lthumb -5.34401 23.9234
rfemur -62.8233 10.4142 24.0451
rtibia 110.89
rfoot -4.82554 -11.5904
rtoes -8.76521
lfemur -31.839 -14.6294 -24.8039
ltibia 27.2489
lfoot -10.9599 -0.156634
ltoes 0.664221
814
root -5.35324 14.9632 41.8007 -162.519 -4.46032 178.011
lowerback -17.4864 2.38188 -15.5827
upperback -3.90916 4.85276 -8.59052
thorax 4.84673 1.51929 0.358087
lowerneck -11.8221 5.48627 3.74757
upperneck 41.073 -2.9033 10.4873
head 17.342 -1.09475 3.03675
rclavicle 2.48481e-014 -1.43125e-013
rhumerus -39.8729 4.97 -88.2701
rradius 33.6805
rwrist 3.65715
rhand -13.2857 -10.7757
rfingers 7.12502
rthumb 12.8178 -40.3621
lclavicle 2.48481e-014 -1.43125e-013
lhumerus -36.6392 -1.11038 61.4527
lradius 35.0186
lwrist 44.8048
lhand -32.4529 -5.86651
lfingers 7.12502
lthumb -5.68603 24.0372
rfemur -62.5878 10.5757 24.2338
rtibia 111.829
rfoot -4.62267 -11.3623
rtoes -8.7038
lfemur -31.6393 -14.6099 -24.7545
ltibia 26.825
lfoot -10.7877 -0.0776835
ltoes 0.465189
815
root -5.34103 14.9753 41.7994 -162.504 -4.34915 178.015
lowerback -17.4863 2.46702 -15.518
upperback -3.93731 4.93901 -8.68321
thorax 4.81975 1.55789 0.23871
lowerneck -11.8751 5.5388 3.76495
upperneck 41.1177 -2.81088 10.4509
head 17.373 -1.05369 3.03732
rclavicle 8.74653e-015 1.04958e-013
rhumerus -39.7481 5.05753 -88.2208
rradius 33.987
rwrist 3.38211
rhand -13.4211 -10.9418
rfingers 7.12502
rthumb 12.6872 -40.5364
lclavicle 8.74653e-015 1.04958e-013
lhumerus -36.7008 -0.123821 60.797
lradius 34.5889
lwrist 45.1292
lhand -32.7765 -5.74147
lfingers 7.12502
lthumb -5.99848 24.1536
rfemur -62.3326 10.7271 24.4068
rtibia 112.65
rfoot -4.42645 -11.1297
rtoes -8.61272
lfemur -31.4342 -14.5962 -24.689
ltibia 26.4344
lfoot -10.6338 0.017593
ltoes 0.280979
